<svg id="圖層_1" data-name="圖層 1" xmlns="http://www.w3.org/2000/svg" viewBox="0 0 57.73 50"><defs><style>.cls-1{fill:#040000;}.cls-2,.cls-3{fill:#fff;}.cls-3{fill-rule:evenodd;}</style></defs><polygon class="cls-1" points="0 25 14.43 50 43.3 50 57.73 25 43.3 0 14.43 0 0 25"/><path class="cls-2" d="M41,4,53.12,25,41,46H16.74L4.62,25,16.74,4H41m.58-1H16.17l-.29.5L3.75,24.5l-.29.5.29.5,12.13,21,.29.5h25.4l.29-.5L54,25.5l.29-.5L54,24.5,41.86,3.5,41.57,3Z"/><path class="cls-3" d="M28.87,35.83H21.19a2.24,2.24,0,0,1-2.05-1.24,2.13,2.13,0,0,1-.27-1V18.2a2.29,2.29,0,0,1,.58-1.58,2.19,2.19,0,0,1,1.7-.78H36.58a2.31,2.31,0,0,1,2.29,2.25V33.46a2.29,2.29,0,0,1-.32,1.23,2.26,2.26,0,0,1-2,1.14ZM21.18,24.3v8.33a1.48,1.48,0,0,0,0,.21.76.76,0,0,0,.59.66,1.11,1.11,0,0,0,.26,0H35.81a.68.68,0,0,0,.39-.11.77.77,0,0,0,.35-.69V24.5a1.21,1.21,0,0,0,0-.19H34.83A6.15,6.15,0,0,1,29.37,32a5.91,5.91,0,0,1-4.52-1.48,6.13,6.13,0,0,1-2-6.19ZM25,25.83A3.84,3.84,0,1,0,28.87,22,3.83,3.83,0,0,0,25,25.83Zm7.69-5.77v1.13a.78.78,0,0,0,.81.8h2.21a.78.78,0,0,0,.81-.8c0-.75,0-1.5,0-2.25a.93.93,0,0,0,0-.24.76.76,0,0,0-.77-.55c-.73,0-1.46,0-2.2,0a.8.8,0,0,0-.83.83C32.73,19.33,32.72,19.7,32.72,20.06Z"/></svg>