<svg id="圖層_1" data-name="圖層 1" xmlns="http://www.w3.org/2000/svg" viewBox="0 0 57.73 50"><defs><style>.cls-1{fill:#040000;}.cls-2{fill:#fff;}.cls-3{fill:#efefef;}</style></defs><polygon class="cls-1" points="0 25 14.43 50 43.3 50 57.73 25 43.3 0 14.43 0 0 25"/><path class="cls-2" d="M41,4,53.12,25,41,46H16.74L4.62,25,16.74,4H41m.58-1H16.17l-.29.5L3.75,24.5l-.29.5.29.5,12.13,21,.29.5h25.4l.29-.5L54,25.5l.29-.5L54,24.5,41.86,3.5,41.57,3Z"/><path class="cls-3" d="M40.71,24.37A5.87,5.87,0,0,1,38,24.1a2.9,2.9,0,0,0,2.58-1.54,4.25,4.25,0,0,1-2.79.31c0-.2-.09-.38-.14-.54-.62-2.31-2.77-4.16-5-3.94l.54-.2c.25-.09,1.7-.33,1.47-.84s-2,.34-2.3.44c.44-.16,1.17-.45,1.25-.95a3.53,3.53,0,0,0-1.85.87,1.31,1.31,0,0,0,.36-.7c-1.81,1.15-2.86,3.47-3.71,5.73a9.16,9.16,0,0,0-1.79-1.45,47.55,47.55,0,0,0-6.08-2.67,3.24,3.24,0,0,0,2,3,4.75,4.75,0,0,0-1.46.17c.2,1.07.86,1.94,2.65,2.36a2.14,2.14,0,0,0-1.62.65,2.77,2.77,0,0,0,2.91,1.43c-1.81.78-.74,2.23.74,2a6.27,6.27,0,0,1-8.78.24c6,8.13,18.92,4.81,20.85-3A3.59,3.59,0,0,0,40.71,24.37Z"/></svg>