<svg xmlns="http://www.w3.org/2000/svg" viewBox="0 0 44 50.81"><defs><style>.cls-1{isolation:isolate;}.cls-2{fill:#c9bc9c;}.cls-3{opacity:0.75;mix-blend-mode:multiply;}.cls-4{fill:#241c1d;}.cls-5{fill:#fff;}.cls-6{fill:#8fc31f;}</style></defs><g class="cls-1"><g id="圖層_1" data-name="圖層 1"><path class="cls-2" d="M22,2.31,42,13.86V37L22,48.5,2,37V13.86L22,2.31M22,0,21,.58,1,12.12,0,12.7V38.1l1,.58L21,50.23l1,.58,1-.58L43,38.68l1-.58V12.7l-1-.58L23,.58,22,0Z"/><g class="cls-3"><path class="cls-4" d="M17.78,39.11h0a.7.7,0,0,1-.65-.59L14,16.87,4.62,20.12a.7.7,0,0,1-.88-.43.69.69,0,0,1,.43-.88l10.14-3.52a.68.68,0,0,1,.59.06.7.7,0,0,1,.33.49l2.82,19.62C19.73,31.11,23.76,23,31,20.93a.69.69,0,0,1,.85.48.68.68,0,0,1-.47.85c-9,2.6-12.87,16.2-12.91,16.34A.7.7,0,0,1,17.78,39.11Z"/></g><path class="cls-5" d="M17.23,38.57h0a.68.68,0,0,1-.64-.59L13.43,16.32,4.08,19.57a.69.69,0,1,1-.46-1.31l10.15-3.52a.66.66,0,0,1,.58.06.7.7,0,0,1,.33.49l2.83,19.62c1.68-4.35,5.7-12.46,12.92-14.53a.7.7,0,1,1,.38,1.34c-9,2.59-12.87,16.2-12.91,16.34A.7.7,0,0,1,17.23,38.57Z"/><path class="cls-6" d="M36.93,19.48a1.85,1.85,0,1,1-1.85-1.84A1.85,1.85,0,0,1,36.93,19.48Z"/></g></g></svg>