<svg id="圖層_1" data-name="圖層 1" xmlns="http://www.w3.org/2000/svg" viewBox="0 0 57.73 50"><defs><style>.cls-1{fill:#040000;}.cls-2{fill:#fff;}.cls-3{fill:#efefef;}</style></defs><polygon class="cls-1" points="0 25 14.43 50 43.3 50 57.73 25 43.3 0 14.43 0 0 25"/><path class="cls-2" d="M41,4,53.12,25,41,46H16.74L4.62,25,16.74,4H41m.58-1H16.17l-.29.5L3.75,24.5l-.29.5.29.5,12.13,21,.29.5h25.4l.29-.5L54,25.5l.29-.5L54,24.5,41.86,3.5,41.57,3Z"/><path class="cls-3" d="M28.19,18.11a3.33,3.33,0,0,1,1.42,2.69,3.39,3.39,0,0,1-1.68,2.84,1.41,1.41,0,0,0-.56,1,1.1,1.1,0,0,0,.52.86l.72.56a3.48,3.48,0,0,1,1.68,2.8c0,1.88-1.82,3.78-5.26,3.78-2.9,0-4.29-1.38-4.29-2.86a2.88,2.88,0,0,1,1.54-2.44,8.53,8.53,0,0,1,3.81-.92,2.1,2.1,0,0,1-.6-1.36,1.79,1.79,0,0,1,.2-.78c-.22,0-.44,0-.64,0a3.16,3.16,0,0,1-3.31-3.14A3.62,3.62,0,0,1,23,18.48a5.45,5.45,0,0,1,3.58-1.1h4.12l-1.28.73ZM26.77,27a3.24,3.24,0,0,0-.46,0,8,8,0,0,0-2.1.32,2.25,2.25,0,0,0-1.71,2.06c0,1.42,1.38,2.44,3.51,2.44,1.92,0,2.94-.92,2.94-2.16C29,28.6,28.29,28.06,26.77,27Zm.58-3.8a2,2,0,0,0,.5-1.46c0-1.44-.86-3.68-2.52-3.68a1.81,1.81,0,0,0-1.39.67,2.22,2.22,0,0,0-.45,1.47c0,1.34.78,3.56,2.5,3.56A2,2,0,0,0,27.35,23.18Z"/><polygon class="cls-3" points="38.55 23.09 35.48 23.09 35.48 20.02 34.02 20.02 34.02 23.09 30.95 23.09 30.95 24.55 34.02 24.55 34.02 27.62 35.48 27.62 35.48 24.55 38.55 24.55 38.55 23.09"/></svg>